{"title":"The.Karate.Kid.2010.DVDRip.XviD-MAGNET","uid":5720765,"size":1611082898,"categoryP":"video","categoryS":"movies","magnet":"?xt=urn:btih:c8a54f8b0b90e9c968a39dfe188bc76f1ce02b2f&amp;dn=The.Karate.Kid.2010.DVDRip.XviD-MAGNET&amp;tr=udp%3A%2F%2Ftracker.openbittorrent.com%3A80&amp;tr=udp%3A%2F%2Fopen.demonii.com%3A1337&amp;tr=udp%3A%2F%2Ftracker.coppersurfer.tk%3A6969&amp;tr=udp%3A%2F%2Fexodus.desync.com%3A6969","seeders":0,"leechers":1,"uploader":"TvTeam","files":5,"time":1280280248,"description":". \n  &lt;a href=&quot;\nhttp://www.torrentday.com/&quot; rel=&quot;nofollow&quot; target=&quot;_NEW&quot;&gt;\nhttp://www.torrentday.com/&lt;/a&gt;        :     The Hottest Private Tracker On The Net!!!\n\n\n               www . TorrentDay . Com \n(((((((((((((= Enjoy No RAR releases =))))))))))))))))))))\n\n\n...................................NFO:....................................\n\n.................................................................................\n................................................................................\n................................................................................\n................................................................................\n................................................................................\n................................................................................\n............................................ MMMMMMMMMMMMM......................\n........................................MMM.............. MMM...................\n.....................................MM......................MM ................\n...................................MM..........................M,...............\n.................................M: ............................MM..............\n...............................M ...........MMMMMMM..............MM.............\n                             M8.        MMMMMMMMMMMMM .          NM             \n                           ?M.        MMMMMMMMMMMMMMMMM          .MM            \n                          M.       +MMMMMMMMM       .~MM.         MM~           \n                        IM       .MMMMMMM7            ,MM        .MMM           \n                       M:       DMMMMMM.               MM        DMMM.          \n                      M.      .MMMMMMM                  M        MMMMZ          \n. .  . .. .  . .. .  M .. .  ?MMMMMM?. .. .  . .. .  . .M .  . ..MMMM$ .. .  . .\n                   OI      .MMMMMMM                     M        MMMMZ          \n                 .M       ,MMMMMM,                     MM       ,MMMM           \n                .M.      ,M.MMMM                       M        MMMMM           \n                MNMI.   MM MM+M.                       M       .MMMMM           \n...............M....MMMIM.$MOM....................... M....... MMMMMM...........\n............. M ......MMM7MMI....................... MD...... MMMMMM. ..........\n............ M?......O?M.MM.........................=M...... MMMMMMM M M........\n.............M...... M  MM .........................M.......MMMMMMM   M. .M ....\n............M.......M,M M..........................M.......8MMMMMM .7.MM,.M ....\n...........M ......M MMM.........................MM.......MMMMMMM ...M..MN .....\n...........M..... MZ MMM........................MM.......MMMMMMM................\n..........M,.....MM+MZM .......................M .......MMMMMMM ................\n......... ,......M.M M .......................M ...... MMMMMMM .................\n.........M .....M.M M .......................MNMM ....MMMMMMM...................\n........ MM.... MM.M.......................M..... MMMMMMMMM~....................\n......... NMMMMMMMIM..................... M........MMMMMMM .....................\n...........MMMMMMMM.....................M ...... MMMMOMMM.......................\n........... MMMMMMM...................~M........MM.MMMM ........................\n................MMM................. M,......,MMM.MMMM .........................\n...................................MM.......MMM.  MM ...........................\n................................. M ......MMMM,M M: ............................\n............................... M.......MM IM.MMM...............................\n............................. MMM. .. MMMM.M7MM ................................\n...............................MMMMMMM~ , M8M,..................................\n................................MMMMM: M IM.....................................\n................................MMMMMZM.M ......................................\n................................. 7MMMM.........................................\n....................................,,..........................................\n                                                                                \n                      MAGNET GRoUP PROUDLY PRESENTS :\n\nGeneral\nComplete name                    : The.Karate.Kid.2010.DVDRip.XviD-MAGNET.avi\nFormat                           : AVI\nFormat/Info                      : Audio Video Interleave\nFormat profile                   : OpenDML\nFile size                        : 1.50 GiB\nDuration                         : 2h 7mn\nOverall bit rate                 : 1 688 Kbps\nWriting application              : MEncoder SVN-r1.0~rc3+svn20090426-4.4.3\nWriting library                  : MPlayer\n\nVideo\nID                               : 0\nFormat                           : MPEG-4 Visual\nFormat profile                   : Simple@L1\nFormat settings, BVOP            : No\nFormat settings, QPel            : No\nFormat settings, GMC             : No warppoints\nFormat settings, Matrix          : Default (H.263)\nCodec ID                         : DX50\nCodec ID/Hint                    : DivX 5\nDuration                         : 2h 7mn\nBit rate                         : 1 487 Kbps\nWidth                            : 704 pixels\nHeight                           : 576 pixels\nDisplay aspect ratio             : 16:9\nFrame rate                       : 25.000 fps\nStandard                         : PAL\nColor space                      : YUV\nChroma subsampling               : 4:2:0\nBit depth                        : 8 bits\nScan type                        : Progressive\nBits/(Pixel*Frame)               : 0.147\nStream size                      : 1.32 GiB (88%)\nWriting library                  : Lavc52.20.1\n\nAudio\nID                               : 1\nFormat                           : MPEG Audio\nFormat version                   : Version 1\nFormat profile                   : Layer 3\nMode                             : Joint stereo\nMode extension                   : MS Stereo\nCodec ID                         : 55\nCodec ID/Hint                    : MP3\nDuration                         : 1h 24mn\nBit rate mode                    : Variable\nBit rate                         : 187 Kbps\nChannel(s)                       : 2 channels\nSampling rate                    : 48.0 KHz\nStream size                      : 1.43 GiB (95%)\nAlignment                        : Aligned on interleaves\nInterleave, duration             : 36 ms (0.91 video frame)\nInterleave, preload duration     : 572 ms","torrent":{"xt":"urn:btih:c8a54f8b0b90e9c968a39dfe188bc76f1ce02b2f","amp;dn":"The.Karate.Kid.2010.DVDRip.XviD-MAGNET","amp;tr":["udp%3A%2F%2Ftracker.openbittorrent.com%3A80","udp%3A%2F%2Fopen.demonii.com%3A1337","udp%3A%2F%2Ftracker.coppersurfer.tk%3A6969","udp%3A%2F%2Fexodus.desync.com%3A6969"],"infoHash":"c8a54f8b0b90e9c968a39dfe188bc76f1ce02b2f","infoHashBuffer":{"type":"Buffer","data":[200,165,79,139,11,144,233,201,104,163,157,254,24,139,199,111,28,224,43,47]},"announce":[],"urlList":[]}}